<svg width="21" height="20" viewBox="0 0 21 20" fill="none" xmlns="http://www.w3.org/2000/svg">
<path d="M14.3495 0H6.26573C2.98041 0 0.307617 2.54856 0.307617 5.68117V13.3892C0.307617 16.5218 2.98041 19.0704 6.26573 19.0704H14.3495C17.6348 19.0704 20.3076 16.5218 20.3076 13.3892V5.68117C20.3076 2.54856 17.6348 0 14.3495 0ZM18.2956 13.3892C18.2956 15.4673 16.5289 17.1519 14.3495 17.1519H6.26573C4.08637 17.1519 2.31962 15.4673 2.31962 13.3892V5.68117C2.31962 3.60307 4.08637 1.91848 6.26573 1.91848H14.3495C16.5289 1.91848 18.2956 3.60307 18.2956 5.68117V13.3892Z" fill="white"/>
<path d="M10.3067 4.60284C7.45449 4.60284 5.13403 6.81546 5.13403 9.53509C5.13403 12.2547 7.45449 14.4674 10.3067 14.4674C13.1589 14.4674 15.4794 12.2548 15.4794 9.53509C15.4794 6.81543 13.1589 4.60284 10.3067 4.60284ZM10.3067 12.5489C8.56109 12.5489 7.14602 11.1996 7.14602 9.53512C7.14602 7.87064 8.56113 6.52132 10.3067 6.52132C12.0523 6.52132 13.4674 7.87064 13.4674 9.53512C13.4674 11.1996 12.0523 12.5489 10.3067 12.5489Z" fill="white"/>
<path d="M15.4905 5.82194C16.175 5.82194 16.73 5.2928 16.73 4.64007C16.73 3.98734 16.175 3.45819 15.4905 3.45819C14.8059 3.45819 14.251 3.98734 14.251 4.64007C14.251 5.2928 14.8059 5.82194 15.4905 5.82194Z" fill="white"/>
</svg>
