<svg width="21" height="20" viewBox="0 0 21 20" fill="none" xmlns="http://www.w3.org/2000/svg">
<path d="M10.3076 0.0703735C4.78561 0.0703735 0.307617 4.34023 0.307617 9.60556C0.307617 14.8709 4.78561 19.1407 10.3076 19.1407C15.8296 19.1407 20.3076 14.8709 20.3076 9.60556C20.3076 4.34023 15.8296 0.0703735 10.3076 0.0703735ZM7.40173 14.4849H4.96628V7.49835H7.40173V14.4849ZM6.18408 6.54434H6.16821C5.35095 6.54434 4.82239 6.00789 4.82239 5.33745C4.82239 4.65188 5.36713 4.13028 6.20026 4.13028C7.03339 4.13028 7.54608 4.65188 7.56195 5.33745C7.56195 6.00789 7.03339 6.54434 6.18408 6.54434ZM16.1835 14.4849H13.7483V10.7473C13.7483 9.80794 13.3957 9.16733 12.5145 9.16733C11.8417 9.16733 11.441 9.59945 11.265 10.0166C11.2006 10.1659 11.1848 10.3745 11.1848 10.5833V14.4849H8.74954C8.74954 14.4849 8.78143 8.15381 8.74954 7.49835H11.1848V8.48757C11.5085 8.01151 12.0876 7.33438 13.3797 7.33438C14.982 7.33438 16.1835 8.33291 16.1835 10.4788V14.4849Z" fill="white"/>
</svg>
