<svg width="18" height="20" viewBox="0 0 18 20" fill="none" xmlns="http://www.w3.org/2000/svg">
<path d="M7.02923 19.2111C5.33264 19.2111 3.73562 18.5669 2.53307 17.4013C0.790526 15.7069 0.185421 13.2007 1.08542 10.7615C1.11223 10.687 1.14287 10.6162 1.17733 10.5418C2.38371 8.05787 4.8386 6.68373 7.47348 6.85876C7.64965 6.86993 7.79519 7.02261 7.79519 7.19392V10.4263C7.79519 10.8397 7.44668 11.1711 7.0254 11.1711C5.96455 11.1711 5.10285 12.0015 5.10285 13.0219C5.10285 14.0423 5.96455 14.8727 7.0254 14.8727C7.23221 14.8727 7.43519 14.8392 7.63051 14.7796C8.41561 14.5301 8.94412 13.8263 8.94795 13.0294V0.885538C8.94795 0.472179 9.29263 0.140747 9.72156 0.140747H12.6207C13.0458 0.140747 13.3867 0.472179 13.3867 0.885538C13.3905 2.91137 15.0871 4.55736 17.1743 4.55736C17.5994 4.55736 17.9441 4.88879 17.9441 5.30215V8.13608C17.9441 8.54944 17.5994 8.88087 17.1743 8.88087C16.0637 8.88087 14.9837 8.6686 13.965 8.25152C13.7696 8.16959 13.5743 8.08394 13.3867 7.98712V13.048C13.379 14.694 12.7164 16.2357 11.5254 17.3976C10.5565 18.3397 9.33093 18.943 7.98284 19.1404C7.6688 19.1851 7.3471 19.2111 7.02923 19.2111ZM6.26328 8.39303C5.20626 8.55688 4.23349 9.05962 3.48669 9.84165C2.67861 10.6907 2.21903 11.8079 2.20371 12.966C2.18839 14.2434 2.69009 15.4425 3.6169 16.3437C4.52839 17.23 5.7386 17.7178 7.02923 17.7178C7.27434 17.7178 7.51561 17.6992 7.75689 17.6657C8.77561 17.5167 9.70624 17.0587 10.4416 16.3437C11.3492 15.4648 11.8509 14.2918 11.8547 13.0443V6.63532C11.8547 6.28527 12.1037 5.97618 12.479 5.90543C12.6973 5.86447 12.9233 5.92032 13.0994 6.05439C13.5475 6.38954 14.0415 6.66884 14.5662 6.88111C15.1598 7.12316 15.7764 7.28329 16.4122 7.35032V5.99108C14.0913 5.66337 12.2492 3.8796 11.9122 1.62661H10.476V13.0294C10.4722 14.4705 9.52241 15.7404 8.11689 16.191C7.76838 16.3027 7.40072 16.3623 7.03306 16.3623C5.13349 16.3623 3.59009 14.8653 3.59009 13.0219C3.59009 11.4355 4.7352 10.1023 6.26711 9.76345V8.39303H6.26328Z" fill="white"/>
<path d="M6.26328 8.39303C5.20626 8.55688 4.23349 9.05962 3.48669 9.84165C2.67861 10.6907 2.21903 11.8079 2.20371 12.966C2.18839 14.2434 2.69009 15.4425 3.6169 16.3437C4.52839 17.23 5.7386 17.7178 7.02923 17.7178C7.27434 17.7178 7.51561 17.6992 7.75689 17.6657C8.77561 17.5167 9.70624 17.0587 10.4416 16.3437C11.3492 15.4648 11.8509 14.2918 11.8547 13.0443V6.63532C11.8547 6.28527 12.1037 5.97618 12.479 5.90543C12.6973 5.86447 12.9233 5.92032 13.0994 6.05439C13.5475 6.38954 14.0415 6.66884 14.5662 6.88111C15.1598 7.12316 15.7764 7.28329 16.4122 7.35032V5.99108C14.0913 5.66337 12.2492 3.8796 11.9122 1.62661H10.476V13.0294C10.4722 14.4705 9.52241 15.7404 8.11689 16.191C7.76838 16.3027 7.40072 16.3623 7.03306 16.3623C5.13349 16.3623 3.59009 14.8653 3.59009 13.0219C3.59009 11.4355 4.7352 10.1023 6.26711 9.76345V8.39303H6.26328Z" fill="white"/>
</svg>
