<svg width="25" height="20" viewBox="0 0 25 20" fill="none" xmlns="http://www.w3.org/2000/svg">
<path d="M22.0861 4.96698C23.0872 4.28925 23.9292 3.4433 24.6154 2.46925C23.6995 2.85163 22.7251 3.10493 21.7077 3.22815C22.7538 2.63257 23.5528 1.69665 23.9282 0.569057C22.9528 1.12356 21.8759 1.51475 20.7282 1.73382C19.802 0.793011 18.482 0.211121 17.042 0.211121C14.2482 0.211121 11.999 2.37341 11.999 5.0237C11.999 5.40511 12.0328 5.77185 12.1159 6.12098C7.92102 5.92539 4.2082 4.00857 1.71384 1.08738C1.27897 1.80814 1.02256 2.63257 1.02256 3.51959C1.02256 5.18604 1.92205 6.66277 3.26461 7.5185C2.45333 7.50383 1.65846 7.27889 0.984614 6.92585V6.97866C0.984614 9.31698 2.73333 11.2592 5.02769 11.7071C4.61641 11.8147 4.16923 11.8656 3.70461 11.8656C3.38153 11.8656 3.05538 11.848 2.74974 11.7834C3.40307 13.6885 5.25948 15.0899 7.46461 15.1359C5.74769 16.416 3.56718 17.1877 1.20718 17.1877C0.793845 17.1877 0.396923 17.1701 0 17.1221C2.23589 18.4962 4.8841 19.2815 7.74153 19.2815C16.6472 19.2815 22.4513 12.1971 22.0861 4.96698Z" fill="white"/>
</svg>
